<svg id="Capa_1" enable-background="new 0 0 512 512" height="512" viewBox="0 0 512 512" width="512" xmlns="http://www.w3.org/2000/svg"><g><g><g><g><g><g><g><g><g><path d="m512 256c0-141.385-114.615-256-256-256s-256 114.615-256 256c0 121.942 85.264 223.959 199.424 249.714l216.74-50.017c58.425-46.919 95.836-118.933 95.836-199.697z" fill="#ff6c52"/></g></g></g></g></g></g></g></g><path d="m512 256c0-21.51-2.653-42.401-7.65-62.362l-116.637-116.638-262.984 161.334-26.244-26.244-35.643 37.91 233.377 233.377 119.984-27.688c58.409-46.92 95.797-118.939 95.797-199.689z" fill="#f92814"/><g><path d="m196.894 505.143c18.974 4.484 38.763 6.857 59.106 6.857 61.062 0 117.13-21.378 161.129-57.059v-154.518h-220.235z" fill="#e9edf5"/></g><g><path d="m417.129 300.423h-99.563v204.119c37.014-9.138 70.858-26.323 99.563-49.601z" fill="#cdd2e1"/></g><g><path d="m314.258 150.559c-82.454 0-149.296 66.842-149.296 149.296s66.842 149.296 149.296 149.296c3.479 0 6.927-.129 10.346-.363v-297.866c-3.419-.234-6.867-.363-10.346-.363z" fill="#bec3d2"/></g><g><path d="m463.554 299.855c0-81.348-65.063-147.495-145.988-149.254v298.509c80.926-1.76 145.988-67.907 145.988-149.255z" fill="#9196aa"/></g><g><path d="m261.401 132.966-185.701 97.738 4.392 15.371c6.657 23.299 27.952 39.362 52.183 39.362h132.384z" fill="#fff"/></g><g><circle cx="79.61" cy="230.052" fill="#636978" r="26.063"/></g><g><circle cx="215.939" cy="196.672" fill="#636978" r="15.418"/></g><g><path d="m279.279 336.912c-17.431 0-31.561-14.13-31.561-31.561v-178.249h63.122v178.249c0 17.43-14.13 31.561-31.561 31.561z" fill="#e9edf5"/></g><g><circle cx="317.844" cy="137.283" fill="#cdd2e1" r="92.28"/></g><g><path d="m317.844 45.002c-.093 0-.185.003-.278.004v184.554c.093 0 .185.004.278.004 50.965 0 92.28-41.315 92.28-92.28.001-50.966-41.315-92.282-92.28-92.282z" fill="#afb4c8"/></g></g></svg>